<svg width="48" height="29" viewBox="0 0 48 29" fill="none" xmlns="http://www.w3.org/2000/svg">
<path d="M19.0311 14.9358L16.9535 1.34775C21.6149 -0.132843 26.6205 -0.132843 31.2819 1.34775L29.2043 14.9358C29.0371 16.106 28.0103 16.9657 26.8162 16.9657H21.3953C20.8235 16.9665 20.2704 16.762 19.8366 16.3895C19.4027 16.017 19.1169 15.5012 19.0311 14.9358ZM47.9984 24.1299C47.9984 22.2433 46.876 20.5478 45.1327 19.7597C43.9835 14.2381 40.7285 9.38124 36.0581 6.2194L31.8551 17.7776C31.5207 18.7329 30.6133 19.3538 29.6103 19.3538H18.6252C17.6222 19.3538 16.7147 18.7329 16.3804 17.7776L12.1774 6.2194C7.51303 9.37649 4.25889 14.2234 3.10274 19.7359C1.35945 20.5478 0.237061 22.2195 0.237061 24.1299L15.6401 28.524C16.4998 28.7628 17.3834 28.906 18.267 28.906H29.9207C30.8043 28.906 31.6879 28.7628 32.5476 28.524L47.9984 24.1299Z" fill="url(#paint0_linear_745_4160)"/>
<defs>
<linearGradient id="paint0_linear_745_4160" x1="24.1177" y1="0.237305" x2="24.1177" y2="28.906" gradientUnits="userSpaceOnUse">
<stop stop-color="#7F7894"/>
<stop offset="0.578125" stop-color="white"/>
</linearGradient>
</defs>
</svg>
