<svg width="115" height="94" viewBox="0 0 115 94" fill="none" xmlns="http://www.w3.org/2000/svg">
<circle cx="57.4985" cy="35.3168" r="34.3188" fill="#EAECF0"/>
<g filter="url(#filter0_dd_2154_6919)">
<path d="M58.5537 11.5576C51.444 11.5576 45.1548 15.0709 41.3274 20.456C40.0777 20.1613 38.7743 20.0053 37.4345 20.0053C28.1034 20.0053 20.5391 27.5697 20.5391 36.9007C20.5391 46.2318 28.1034 53.7961 37.4345 53.7961L79.673 53.7961C87.8377 53.7961 94.4565 47.1773 94.4565 39.0126C94.4565 30.848 87.8377 24.2292 79.673 24.2292C79.093 24.2292 78.5209 24.2626 77.9584 24.3275C74.7221 16.8161 67.252 11.5576 58.5537 11.5576Z" fill="#F9FAFB"/>
<ellipse cx="37.4345" cy="36.9003" rx="16.8954" ry="16.8954" fill="url(#paint0_linear_2154_6919)"/>
<circle cx="58.5528" cy="32.6769" r="21.1193" fill="url(#paint1_linear_2154_6919)"/>
<ellipse cx="79.6702" cy="39.013" rx="14.7835" ry="14.7835" fill="url(#paint2_linear_2154_6919)"/>
</g>
<circle cx="21.1983" cy="13.5372" r="3.29988" fill="#F2F4F7"/>
<circle cx="19.2175" cy="72.9353" r="4.61984" fill="#F2F4F7"/>
<circle cx="103.034" cy="24.0974" r="4.61984" fill="#F2F4F7"/>
<circle cx="95.7766" cy="6.2776" r="2.63991" fill="#F2F4F7"/>
<g filter="url(#filter1_b_2154_6919)">
<rect x="41.6562" y="41.917" width="31.6789" height="31.6789" rx="15.8394" fill="#344054" fill-opacity="0.4"/>
<g clip-path="url(#clip0_2154_6919)">
<path d="M60.1375 60.3964L57.4976 57.7565M57.4976 57.7565L54.8577 60.3964M57.4976 57.7565V63.6963M63.0348 61.9738C63.6785 61.6229 64.1871 61.0676 64.4801 60.3955C64.7732 59.7235 64.8341 58.973 64.6532 58.2625C64.4724 57.552 64.0601 56.922 63.4814 56.4718C62.9028 56.0217 62.1906 55.7771 61.4575 55.7766H60.6259C60.4262 55.0039 60.0538 54.2866 59.5369 53.6785C59.02 53.0705 58.372 52.5875 57.6416 52.2659C56.9112 51.9444 56.1173 51.7926 55.3198 51.8219C54.5223 51.8513 53.7418 52.0611 53.037 52.4356C52.3322 52.81 51.7215 53.3394 51.2507 53.9838C50.78 54.6283 50.4614 55.3711 50.3191 56.1563C50.1767 56.9416 50.2142 57.749 50.4288 58.5177C50.6433 59.2863 51.0294 59.9964 51.5578 60.5944" stroke="white" stroke-width="1.31995" stroke-linecap="round" stroke-linejoin="round"/>
</g>
</g>
<defs>
<filter id="filter0_dd_2154_6919" x="0.539062" y="11.5576" width="113.918" height="82.2393" filterUnits="userSpaceOnUse" color-interpolation-filters="sRGB">
<feFlood flood-opacity="0" result="BackgroundImageFix"/>
<feColorMatrix in="SourceAlpha" type="matrix" values="0 0 0 0 0 0 0 0 0 0 0 0 0 0 0 0 0 0 127 0" result="hardAlpha"/>
<feMorphology radius="4" operator="erode" in="SourceAlpha" result="effect1_dropShadow_2154_6919"/>
<feOffset dy="8"/>
<feGaussianBlur stdDeviation="4"/>
<feColorMatrix type="matrix" values="0 0 0 0 0.0627451 0 0 0 0 0.0941176 0 0 0 0 0.156863 0 0 0 0.03 0"/>
<feBlend mode="normal" in2="BackgroundImageFix" result="effect1_dropShadow_2154_6919"/>
<feColorMatrix in="SourceAlpha" type="matrix" values="0 0 0 0 0 0 0 0 0 0 0 0 0 0 0 0 0 0 127 0" result="hardAlpha"/>
<feMorphology radius="4" operator="erode" in="SourceAlpha" result="effect2_dropShadow_2154_6919"/>
<feOffset dy="20"/>
<feGaussianBlur stdDeviation="12"/>
<feColorMatrix type="matrix" values="0 0 0 0 0.0627451 0 0 0 0 0.0941176 0 0 0 0 0.156863 0 0 0 0.08 0"/>
<feBlend mode="normal" in2="effect1_dropShadow_2154_6919" result="effect2_dropShadow_2154_6919"/>
<feBlend mode="normal" in="SourceGraphic" in2="effect2_dropShadow_2154_6919" result="shape"/>
</filter>
<filter id="filter1_b_2154_6919" x="33.6562" y="33.917" width="47.6797" height="47.6787" filterUnits="userSpaceOnUse" color-interpolation-filters="sRGB">
<feFlood flood-opacity="0" result="BackgroundImageFix"/>
<feGaussianBlur in="BackgroundImageFix" stdDeviation="4"/>
<feComposite in2="SourceAlpha" operator="in" result="effect1_backgroundBlur_2154_6919"/>
<feBlend mode="normal" in="SourceGraphic" in2="effect1_backgroundBlur_2154_6919" result="shape"/>
</filter>
<linearGradient id="paint0_linear_2154_6919" x1="24.4612" y1="25.7373" x2="54.3299" y2="53.7957" gradientUnits="userSpaceOnUse">
<stop stop-color="#D0D5DD"/>
<stop offset="0.350715" stop-color="white" stop-opacity="0"/>
</linearGradient>
<linearGradient id="paint1_linear_2154_6919" x1="42.3363" y1="18.7231" x2="79.6721" y2="53.7961" gradientUnits="userSpaceOnUse">
<stop stop-color="#D0D5DD"/>
<stop offset="0.350715" stop-color="white" stop-opacity="0"/>
</linearGradient>
<linearGradient id="paint2_linear_2154_6919" x1="68.3186" y1="29.2453" x2="94.4537" y2="53.7964" gradientUnits="userSpaceOnUse">
<stop stop-color="#D0D5DD"/>
<stop offset="0.350715" stop-color="white" stop-opacity="0"/>
</linearGradient>
<clipPath id="clip0_2154_6919">
<rect width="15.8394" height="15.8394" fill="white" transform="translate(49.5781 49.8359)"/>
</clipPath>
</defs>
</svg>
