<svg width="49" height="30" viewBox="0 0 49 30" fill="none" xmlns="http://www.w3.org/2000/svg">
<path d="M19.0871 15.0872L17.0094 1.49911C21.6708 0.0185246 26.6764 0.0185246 31.3378 1.49911L29.2602 15.0872C29.0931 16.2574 28.0662 17.1171 26.8722 17.1171H21.4512C20.8794 17.1178 20.3263 16.9134 19.8925 16.5409C19.4586 16.1684 19.1728 15.6526 19.0871 15.0872ZM48.0543 24.2813C48.0543 22.3947 46.9319 20.6992 45.1886 19.9111C44.0394 14.3894 40.7844 9.53261 36.114 6.37077L31.911 17.929C31.5766 18.8842 30.6692 19.5051 29.6662 19.5051H18.6811C17.6781 19.5051 16.7706 18.8842 16.4363 17.929L12.2333 6.37077C7.56893 9.52786 4.3148 14.3748 3.15865 19.8872C1.41536 20.6992 0.292969 22.3708 0.292969 24.2813L15.696 28.6753C16.5557 28.9141 17.4393 29.0574 18.3229 29.0574H29.9766C30.8602 29.0574 31.7438 28.9141 32.6035 28.6753L48.0543 24.2813Z" fill="url(#paint0_linear_1272_2099)"/>
<defs>
<linearGradient id="paint0_linear_1272_2099" x1="24.1736" y1="0.388672" x2="24.1736" y2="29.0574" gradientUnits="userSpaceOnUse">
<stop stop-color="#1E1D2F" stop-opacity="0.6"/>
<stop offset="0.578125" stop-color="#1E1D2F"/>
</linearGradient>
</defs>
</svg>
