<svg width="25" height="25" viewBox="0 0 25 25" fill="none" xmlns="http://www.w3.org/2000/svg">
<path d="M16.1381 15.7427C15.5581 15.7427 14.9281 15.5527 14.2981 15.1627L12.9781 14.3627C12.9181 14.3227 12.7381 14.3227 12.6781 14.3627L11.3581 15.1627C10.2781 15.8227 9.21812 15.9227 8.36812 15.4427C7.53812 14.9727 7.07812 14.0327 7.07812 12.8027V5.75266C7.07812 3.31266 8.40812 1.97266 10.8281 1.97266H14.8281C17.2481 1.97266 18.5781 3.31266 18.5781 5.75266V12.8027C18.5781 14.0427 18.1181 14.9827 17.2881 15.4427C16.9381 15.6427 16.5481 15.7427 16.1381 15.7427ZM12.8281 12.8327C13.1581 12.8327 13.4881 12.9127 13.7581 13.0727L15.0781 13.8727C15.6681 14.2327 16.2081 14.3227 16.5481 14.1327C16.8781 13.9427 17.0681 13.4527 17.0681 12.7927V5.75266C17.0681 4.15266 16.3981 3.47266 14.8181 3.47266H10.8181C9.23812 3.47266 8.56812 4.15266 8.56812 5.75266V12.8027C8.56812 13.4627 8.75813 13.9527 9.08813 14.1427C9.42813 14.3327 9.96812 14.2427 10.5581 13.8827L11.8781 13.0827C12.1681 12.9127 12.4981 12.8327 12.8281 12.8327Z" fill="#292D32"/>
<path d="M15.8281 23.4727H9.82812C4.39813 23.4727 2.07812 21.1327 2.07812 15.6527V12.6227C2.07812 7.96266 3.75813 5.60266 7.51813 4.97266C7.91813 4.90266 8.30813 5.18266 8.37813 5.59266C8.44813 6.00266 8.16812 6.38266 7.75812 6.45266C4.74812 6.95266 3.56813 8.68266 3.56813 12.6227V15.6527C3.56813 20.2627 5.25812 21.9727 9.81812 21.9727H15.8181C20.3781 21.9727 22.0681 20.2627 22.0681 15.6527V12.6227C22.0681 8.62266 20.8481 6.89266 17.7081 6.42266C17.2981 6.36266 17.0181 5.98266 17.0781 5.57266C17.1381 5.16266 17.5181 4.88266 17.9281 4.94266C21.8281 5.52266 23.5681 7.88266 23.5681 12.6227V15.6527C23.5781 21.1327 21.2581 23.4727 15.8281 23.4727Z" fill="#292D32"/>
</svg>
