<svg width="15" height="10" viewBox="0 0 15 10" fill="none" xmlns="http://www.w3.org/2000/svg">
<path d="M5.72794 9.02092L4.4406 8.67558L4.96527 6.71625C4.17991 6.4266 3.45001 6.00449 2.80727 5.46825L1.37194 6.90425L0.428602 5.96092L1.8646 4.52558C1.05399 3.55476 0.509327 2.39009 0.283936 1.14558L1.59594 0.90625C2.10194 3.70758 4.5526 5.83292 7.49994 5.83292C10.4466 5.83292 12.8979 3.70758 13.4039 0.90625L14.7159 1.14492C14.4908 2.38959 13.9464 3.5545 13.1359 4.52558L14.5713 5.96092L13.6279 6.90425L12.1926 5.46825C11.5499 6.00449 10.82 6.4266 10.0346 6.71625L10.5593 8.67625L9.27194 9.02092L8.7466 7.06092C7.9215 7.2023 7.07837 7.2023 6.25327 7.06092L5.72794 9.02092Z" fill="black"/>
</svg>
