<svg width="25" height="25" viewBox="0 0 25 25" fill="none" xmlns="http://www.w3.org/2000/svg">
<g clip-path="url(#clip0_894_4343)">
<path d="M24.5993 12.7763C24.5993 11.9605 24.5331 11.1404 24.392 10.3379H13.0732V14.9589H19.555C19.286 16.4492 18.4218 17.7676 17.1563 18.6054V21.6037H21.0233C23.2941 19.5137 24.5993 16.4272 24.5993 12.7763Z" fill="#4285F4"/>
<path d="M13.0731 24.5013C16.3096 24.5013 19.0389 23.4387 21.0275 21.6044L17.1606 18.606C16.0847 19.338 14.6957 19.7525 13.0775 19.7525C9.94689 19.7525 7.29247 17.6404 6.34006 14.8008H2.34961V17.8917C4.38672 21.9439 8.53591 24.5013 13.0731 24.5013V24.5013Z" fill="#34A853"/>
<path d="M6.33578 14.8007C5.83312 13.3103 5.83312 11.6965 6.33578 10.2062V7.11523H2.34974C0.647742 10.506 0.647742 14.5009 2.34974 17.8916L6.33578 14.8007V14.8007Z" fill="#FBBC04"/>
<path d="M13.0731 5.24966C14.7839 5.2232 16.4374 5.86697 17.6765 7.04867L21.1025 3.62262C18.9331 1.5855 16.0538 0.465534 13.0731 0.500809C8.5359 0.500809 4.38672 3.05822 2.34961 7.11481L6.33565 10.2058C7.28365 7.36173 9.94248 5.24966 13.0731 5.24966V5.24966Z" fill="#EA4335"/>
</g>
<defs>
<clipPath id="clip0_894_4343">
<rect width="24" height="24" fill="white" transform="translate(0.833252 0.5)"/>
</clipPath>
</defs>
</svg>
