<svg width="25" height="25" viewBox="0 0 25 25" fill="none" xmlns="http://www.w3.org/2000/svg">
<path d="M12.8281 11.2431C12.4181 11.2431 12.0781 10.9031 12.0781 10.4931V7.16309C12.0781 6.75309 12.4181 6.41309 12.8281 6.41309C13.2381 6.41309 13.5781 6.75309 13.5781 7.16309V10.4931C13.5781 10.9131 13.2381 11.2431 12.8281 11.2431Z" fill="#292D32"/>
<path d="M12.849 21.0729C10.269 21.0729 7.69897 20.6629 5.24897 19.8429C4.33897 19.5429 3.64897 18.8929 3.34897 18.0729C3.04897 17.2529 3.14897 16.3129 3.63897 15.4929L4.90897 13.3729C5.18897 12.9029 5.43897 12.0229 5.43897 11.4729V9.37289C5.43897 5.28289 8.75897 1.96289 12.849 1.96289C16.939 1.96289 20.259 5.28289 20.259 9.37289V11.4729C20.259 12.0129 20.509 12.9029 20.789 13.3729L22.059 15.4929C22.529 16.2729 22.609 17.2029 22.299 18.0529C21.989 18.9029 21.309 19.5529 20.449 19.8429C17.999 20.6729 15.429 21.0729 12.849 21.0729ZM12.849 3.47289C9.58897 3.47289 6.93897 6.12289 6.93897 9.38289V11.4829C6.93897 12.2929 6.61897 13.4629 6.19897 14.1529L4.92897 16.2829C4.66897 16.7129 4.60897 17.1729 4.75897 17.5729C4.90897 17.9729 5.24897 18.2729 5.72897 18.4329C10.329 19.9629 15.389 19.9629 19.989 18.4329C20.419 18.2929 20.749 17.9729 20.899 17.5529C21.059 17.1329 21.009 16.6729 20.779 16.2829L19.509 14.1629C19.089 13.4729 18.769 12.3029 18.769 11.4929V9.39289C18.759 6.12289 16.109 3.47289 12.849 3.47289Z" fill="#292D32"/>
<path d="M12.828 23.623C11.758 23.623 10.708 23.183 9.94805 22.423C9.18805 21.663 8.74805 20.613 8.74805 19.543H10.248C10.248 20.223 10.528 20.883 11.008 21.363C11.488 21.843 12.148 22.123 12.828 22.123C14.248 22.123 15.408 20.963 15.408 19.543H16.908C16.908 21.793 15.078 23.623 12.828 23.623Z" fill="#292D32"/>
</svg>
