<svg width="19" height="23" viewBox="0 0 19 23" fill="none" xmlns="http://www.w3.org/2000/svg">
<path d="M18.3426 17.6447C18.0099 18.4133 17.6161 19.1208 17.1598 19.7713C16.5378 20.658 16.0286 21.2719 15.6361 21.6127C15.0277 22.1722 14.3759 22.4587 13.6779 22.475C13.1768 22.475 12.5725 22.3324 11.8691 22.0432C11.1633 21.7553 10.5148 21.6127 9.92174 21.6127C9.29978 21.6127 8.63274 21.7553 7.91926 22.0432C7.20469 22.3324 6.62904 22.4832 6.18892 22.4981C5.51957 22.5266 4.85239 22.2319 4.18644 21.6127C3.76139 21.242 3.22974 20.6064 2.59285 19.7061C1.90951 18.7446 1.34772 17.6297 0.907595 16.3587C0.43624 14.9857 0.199951 13.6563 0.199951 12.3692C0.199951 10.8948 0.518534 9.62321 1.15665 8.5576C1.65815 7.70166 2.32533 7.02647 3.16035 6.53081C3.99537 6.03514 4.89762 5.78256 5.86925 5.7664C6.4009 5.7664 7.09809 5.93085 7.96448 6.25405C8.82843 6.57834 9.38316 6.74279 9.62638 6.74279C9.80821 6.74279 10.4245 6.5505 11.4692 6.16714C12.4571 5.81162 13.2909 5.66441 13.974 5.7224C15.8249 5.87178 17.2155 6.60142 18.1402 7.91595C16.4849 8.91896 15.666 10.3238 15.6823 12.126C15.6972 13.5297 16.2065 14.6979 17.2073 15.6254C17.6609 16.0558 18.1674 16.3885 18.731 16.6248C18.6087 16.9793 18.4797 17.3188 18.3426 17.6447V17.6447ZM14.0975 0.940125C14.0975 2.04038 13.6956 3.06768 12.8944 4.01854C11.9275 5.14892 10.758 5.80211 9.48976 5.69904C9.4736 5.56705 9.46423 5.42812 9.46423 5.28214C9.46423 4.2259 9.92404 3.09552 10.7406 2.17127C11.1483 1.70331 11.6667 1.31421 12.2955 1.00381C12.9229 0.69805 13.5163 0.528957 14.0744 0.5C14.0907 0.647086 14.0975 0.794182 14.0975 0.940111V0.940125Z" fill="white"/>
</svg>
