<svg width="21" height="20" viewBox="0 0 21 20" fill="none" xmlns="http://www.w3.org/2000/svg">
<path d="M10.4272 1.7394C13.017 1.7394 13.3237 1.74906 14.3467 1.79548C14.9619 1.80297 15.5711 1.91538 16.1481 2.12783C16.5665 2.28841 16.9464 2.5344 17.2635 2.84997C17.5806 3.16554 17.8278 3.54369 17.9891 3.96008C18.2026 4.53427 18.3155 5.14063 18.3231 5.75281C18.3693 6.77098 18.3794 7.07621 18.3794 9.65359C18.3794 12.231 18.3697 12.5362 18.3231 13.5544C18.3155 14.1666 18.2026 14.7729 17.9891 15.3471C17.8278 15.7635 17.5806 16.1416 17.2635 16.4572C16.9464 16.7728 16.5665 17.0188 16.1481 17.1794C15.5711 17.3918 14.9619 17.5042 14.3467 17.5117C13.3241 17.5577 13.0175 17.5678 10.4272 17.5678C7.83703 17.5678 7.53034 17.5581 6.50774 17.5117C5.89262 17.5042 5.28335 17.3918 4.70641 17.1794C4.28802 17.0188 3.90806 16.7728 3.59097 16.4572C3.27389 16.1416 3.02671 15.7635 2.86536 15.3471C2.6519 14.7729 2.53895 14.1666 2.53142 13.5544C2.48523 12.5362 2.47507 12.231 2.47507 9.65359C2.47507 7.07621 2.48477 6.77098 2.53142 5.75281C2.53895 5.14063 2.6519 4.53427 2.86536 3.96008C3.02671 3.54369 3.27389 3.16554 3.59097 2.84997C3.90806 2.5344 4.28802 2.28841 4.70641 2.12783C5.28335 1.91538 5.89262 1.80297 6.50774 1.79548C7.5308 1.74952 7.83749 1.7394 10.4272 1.7394ZM10.4272 0C7.79453 0 7.4629 0.0110321 6.42829 0.0579188C5.62326 0.0738547 4.82677 0.225553 4.07271 0.50656C3.42585 0.749114 2.83995 1.12922 2.35591 1.62035C1.86197 2.10226 1.47972 2.68568 1.23585 3.32987C0.953494 4.08033 0.801069 4.87302 0.785056 5.6742C0.738868 6.70295 0.727783 7.033 0.727783 9.65313C0.727783 12.2733 0.738868 12.6033 0.78598 13.633C0.801992 14.4342 0.954418 15.2269 1.23677 15.9773C1.48037 16.6214 1.86231 17.2048 2.35591 17.6868C2.84022 18.1781 3.42644 18.5582 4.07364 18.8006C4.8277 19.0816 5.62419 19.2333 6.42922 19.2493C7.46383 19.2952 7.79407 19.3072 10.4282 19.3072C13.0623 19.3072 13.3925 19.2962 14.4271 19.2493C15.2321 19.2333 16.0286 19.0816 16.7827 18.8006C17.4268 18.5521 18.0118 18.1726 18.5001 17.6863C18.9884 17.2 19.3694 16.6176 19.6186 15.9764C19.901 15.2259 20.0534 14.4333 20.0694 13.6321C20.1156 12.6033 20.1267 12.2733 20.1267 9.65313C20.1267 7.033 20.1156 6.70295 20.0685 5.67329C20.0525 4.8721 19.9001 4.07941 19.6177 3.32895C19.3741 2.68485 18.9922 2.10143 18.4986 1.61943C18.0143 1.12819 17.428 0.748076 16.7809 0.50564C16.0268 0.224633 15.2303 0.0729354 14.4253 0.0569995C13.3916 0.0110322 13.06 0 10.4272 0Z" fill="#D5D5D5"/>
<path d="M10.4255 4.69531C9.44036 4.69531 8.47735 4.98604 7.65824 5.53074C6.83914 6.07543 6.20072 6.84963 5.82373 7.75542C5.44674 8.66122 5.3481 9.65793 5.54029 10.6195C5.73248 11.5811 6.20686 12.4644 6.90346 13.1576C7.60005 13.8509 8.48756 14.323 9.45376 14.5143C10.42 14.7056 11.4215 14.6074 12.3316 14.2322C13.2417 13.857 14.0196 13.2216 14.567 12.4065C15.1143 11.5913 15.4064 10.6329 15.4064 9.65243C15.4064 8.33772 14.8816 7.07686 13.9475 6.14722C13.0134 5.21758 11.7465 4.69531 10.4255 4.69531ZM10.4255 12.8701C9.78603 12.8701 9.16093 12.6814 8.62924 12.3279C8.09755 11.9743 7.68315 11.4718 7.43844 10.8838C7.19373 10.2958 7.1297 9.64886 7.25446 9.02468C7.37921 8.40051 7.68714 7.82717 8.1393 7.37716C8.59147 6.92716 9.16756 6.6207 9.79473 6.49654C10.4219 6.37239 11.072 6.43611 11.6628 6.67965C12.2535 6.92319 12.7585 7.33561 13.1138 7.86476C13.469 8.39391 13.6586 9.01602 13.6586 9.65243C13.6586 10.5058 13.318 11.3243 12.7117 11.9277C12.1053 12.5311 11.283 12.8701 10.4255 12.8701Z" fill="#D5D5D5"/>
<path d="M15.6039 5.65855C16.2467 5.65855 16.7678 5.13993 16.7678 4.50017C16.7678 3.86042 16.2467 3.3418 15.6039 3.3418C14.9611 3.3418 14.4399 3.86042 14.4399 4.50017C14.4399 5.13993 14.9611 5.65855 15.6039 5.65855Z" fill="#D5D5D5"/>
</svg>
