<svg width="22" height="20" viewBox="0 0 22 20" fill="none" xmlns="http://www.w3.org/2000/svg">
<path d="M19.028 0.32229H10.3613C9.25676 0.32229 8.36133 1.21772 8.36133 2.32229V4.98896H11.028H2.36133C1.22799 4.98896 0.361328 5.85562 0.361328 6.98896V14.3223C0.361328 15.4556 1.22799 16.3223 2.36133 16.3223H3.02799V19.7223L7.22799 16.3223H9.69466C10.7992 16.3223 11.6947 15.4269 11.6947 14.3223V11.6556H19.028C20.1613 11.6556 21.028 10.789 21.028 9.65562V2.32229C21.028 1.18896 20.1613 0.32229 19.028 0.32229ZM7.56133 13.589L7.22799 12.5223H5.16133L4.76133 13.589H3.16133L5.36133 7.65562H6.96133L9.16133 13.589H7.56133ZM17.6947 8.32229V9.65562C16.828 9.65562 15.8947 9.38896 15.0947 8.98896C14.2947 9.38896 13.3613 9.58896 12.428 9.65562L12.3613 8.32229C12.828 8.32229 13.2947 8.25562 13.7613 8.12229C13.1613 7.52229 12.7613 6.78896 12.5613 5.98896H13.9613C14.1613 6.58896 14.5613 7.05562 15.028 7.45562C15.7613 6.85562 16.228 5.98896 16.2947 4.98896H12.2947V3.65562H14.2947V2.32229H15.628V3.65562H17.828L17.8947 4.32229C17.9613 5.72229 17.428 7.12229 16.428 8.12229C16.8947 8.25562 17.2947 8.32229 17.6947 8.32229Z" fill="#64748B"/>
</svg>
