<svg width="16" height="14" viewBox="0 0 16 14" fill="none" xmlns="http://www.w3.org/2000/svg">
<path d="M15.9991 2.35408C15.3991 2.61946 14.7658 2.78532 14.0992 2.88484C14.7658 2.48677 15.2991 1.8565 15.5325 1.09353C14.8992 1.45843 14.1992 1.72381 13.4326 1.88967C12.8326 1.2594 11.966 0.861328 11.0327 0.861328C9.23282 0.861328 7.76623 2.32091 7.76623 4.11221C7.76623 4.37759 7.79957 4.6098 7.86623 4.842C5.16638 4.70931 2.73318 3.41559 1.09994 1.42526C0.833287 1.92284 0.666629 2.4536 0.666629 3.0507C0.666629 4.17856 1.23326 5.17373 2.13321 5.77083C1.59991 5.73765 1.09994 5.60497 0.633298 5.37276V5.40593C0.633298 6.9982 1.76657 8.32509 3.26648 8.62364C2.99983 8.68999 2.69985 8.72316 2.39987 8.72316C2.19988 8.72316 1.96656 8.68999 1.76657 8.65682C2.19988 9.95053 3.39981 10.9125 4.83306 10.9125C3.69979 11.775 2.29987 12.3058 0.766624 12.3058C0.499972 12.3058 0.23332 12.3058 0 12.2726C1.46658 13.2014 3.16649 13.7322 5.03305 13.7322C11.066 13.7322 14.3659 8.75633 14.3659 4.44393C14.3659 4.31125 14.3659 4.14538 14.3659 4.0127C14.9992 3.58146 15.5658 3.01753 15.9991 2.35408Z" fill="#D5D5D5"/>
</svg>
